<svg width="161" height="34" viewBox="0 0 161 34" fill="none" xmlns="http://www.w3.org/2000/svg">
<g clip-path="url(#clip0_1785_27502)">
<path d="M43.5298 0.5H49.8014L55.4285 10.9994L61.345 0.5H67.331L58.1185 16.5957V26.0987H52.7423V16.5957L43.5298 0.5Z" fill="#0339F8"/>
<path d="M83.0311 21.7669V26.099H80.4491C77.8324 26.099 77.0104 24.8191 77.0451 23.0232C75.756 25.1105 73.8919 26.3156 71.0205 26.3156C67.0453 26.3156 64.1738 24.378 64.1738 20.8021C64.1738 16.8126 67.1147 14.5481 72.6337 14.5481H76.2925V13.6305C76.2925 11.9488 75.1077 10.854 72.9927 10.854C71.0205 10.854 69.6967 11.7677 69.4806 13.1579H64.6061C64.965 9.49924 68.261 7.08508 73.1355 7.08508C78.2994 7.08508 81.2751 9.42441 81.2751 13.9259V20.5855C81.2751 21.574 81.661 21.7669 82.4561 21.7669H83.0311ZM76.2925 17.9862H72.599C70.484 17.9862 69.2644 18.8644 69.2644 20.4358C69.2644 21.7512 70.3065 22.594 71.9892 22.594C74.6445 22.594 76.2578 20.9123 76.2925 18.3525V17.9862Z" fill="#0339F8"/>
<path d="M81.1675 7.30505H86.5321L91.0129 20.6952L95.3857 7.30505H100.789L92.6378 28.7765C91.4799 31.8838 90.5575 33.4197 87.69 33.4197H82.7807V29.0876H85.575C86.8679 29.0876 87.2963 28.7568 87.798 27.4768L88.265 26.2324L81.1675 7.30505Z" fill="#0339F8"/>
<path d="M118.376 21.7669V26.099H115.794C113.178 26.099 112.352 24.8191 112.39 23.0232C111.097 25.1105 109.233 26.3156 106.366 26.3156C102.387 26.3156 99.519 24.378 99.519 20.8021C99.519 16.8126 102.46 14.5481 107.979 14.5481H111.638V13.6305C111.638 11.9488 110.453 10.854 108.338 10.854C106.366 10.854 105.042 11.7677 104.826 13.1579H99.9513C100.31 9.49924 103.606 7.08508 108.481 7.08508C113.645 7.08508 116.62 9.42441 116.62 13.9259V20.5855C116.62 21.574 117.006 21.7669 117.801 21.7669H118.376ZM111.638 17.9862H107.944C105.829 17.9862 104.61 18.8644 104.61 20.4358C104.61 21.7512 105.652 22.594 107.334 22.594C109.986 22.594 111.599 20.9123 111.638 18.3525V17.9862Z" fill="#0339F8"/>
<path d="M119.522 0.5H124.899V12.0943L134.937 0.5H141.46L132.174 11.1806L142.069 26.0987H135.616L128.376 15.2055L124.903 19.2264V26.0987H119.522V0.5Z" fill="#0339F8"/>
<path d="M140.993 16.7063C140.993 10.9249 144.829 7.08508 150.707 7.08508C156.585 7.08508 160.421 10.9249 160.421 16.7063C160.421 22.4876 156.589 26.3235 150.707 26.3235C144.825 26.3235 140.993 22.4837 140.993 16.7063ZM155.296 16.7063C155.296 13.5241 153.54 11.2912 150.707 11.2912C147.874 11.2912 146.157 13.5241 146.157 16.7063C146.157 19.8884 147.897 22.1174 150.707 22.1174C153.517 22.1174 155.296 19.8884 155.296 16.7063Z" fill="#0339F8"/>
<path d="M5.53353 33.4162C8.54323 33.4162 10.9831 30.9601 10.9831 27.9302C10.9831 24.9004 8.54323 22.4442 5.53353 22.4442C2.52383 22.4442 0.0839844 24.9004 0.0839844 27.9302C0.0839844 30.9601 2.52383 33.4162 5.53353 33.4162Z" fill="#0339F8"/>
<path d="M27.3392 33.4162C30.3489 33.4162 32.7887 30.9601 32.7887 27.9302C32.7887 24.9004 30.3489 22.4442 27.3392 22.4442C24.3295 22.4442 21.8896 24.9004 21.8896 27.9302C21.8896 30.9601 24.3295 33.4162 27.3392 33.4162Z" fill="#0339F8"/>
<path d="M16.4322 11.472C17.1437 11.4788 17.8495 11.342 18.5091 11.0697C19.1687 10.7974 19.7691 10.3948 20.2758 9.88505C20.7825 9.37531 21.1855 8.76847 21.4618 8.09937C21.7381 7.43026 21.8821 6.71206 21.8856 5.986V0.5H32.7886V5.986C32.7922 7.85686 32.4735 9.71381 31.8469 11.472C31.1437 13.499 30.0536 15.3636 28.6397 16.958C28.2306 17.4109 27.7944 17.852 27.3429 18.2616C24.3211 20.9559 20.445 22.4418 16.4322 22.444C14.5761 22.449 12.7329 22.1293 10.9827 21.4988C10.0357 21.1705 9.12292 20.747 8.25789 20.2346C7.28059 19.6819 6.36558 19.0216 5.52925 18.2655C5.08156 17.8717 4.64544 17.4148 4.23634 16.9619C2.81671 15.369 1.72363 13.5024 1.02141 11.472C1.01122 11.4611 1.00352 11.448 0.998848 11.4337C0.994178 11.4194 0.992658 11.4043 0.994396 11.3893C0.382292 9.65662 0.0727059 7.82782 0.0797059 5.986V0.5H10.9827V5.986C10.9916 7.28804 11.4518 8.54484 12.2818 9.53381C13.1119 10.5228 14.2581 11.1801 15.5175 11.3893L16.4322 11.472Z" fill="#0339F8"/>
</g>
<defs>
<clipPath id="clip0_1785_27502">
<rect width="160.5" height="33" fill="white" transform="translate(0 0.5)"/>
</clipPath>
</defs>
</svg>
